<?xml version="1.0" encoding="UTF-8"?><svg id="logo-path" xmlns="http://www.w3.org/2000/svg" viewBox="0 0 1200 146.664"><path d="M116.367,34.037c16.795,0,34.225.476,51.178,2.218.792,6.655,1.268,12.517,1.426,19.014h29.312c-.317-12.359-1.268-23.925-2.852-36.443-26.46-3.011-52.763-4.278-79.065-4.278-26.619,0-53.397,1.585-80.016,5.229-2.06,18.221-3.169,35.333-3.169,53.555,0,18.38,1.109,35.334,3.169,53.555,26.619,3.644,53.397,5.229,80.016,5.229,26.302,0,52.604-1.585,79.065-5.229,1.584-12.359,2.535-23.45,2.852-35.967h-29.312c-.159,6.972-.634,12.676-1.426,19.489-16.954,1.743-34.383,2.218-51.178,2.218-17.271,0-35.176-.476-52.288-2.218-.95-12.676-1.743-24.243-1.743-37.077s.792-24.401,1.743-37.077c17.112-1.743,35.017-2.218,52.288-2.218Z" style="fill:#fff; stroke-width:0px;"/><polygon points="364.643 61.607 254.681 61.607 254.681 16.291 227.745 16.291 227.745 130.373 254.681 130.373 254.681 81.888 364.643 81.888 364.643 130.373 391.579 130.373 391.579 16.291 364.643 16.291 364.643 61.607" style="fill:#fff; stroke-width:0px;"/><path d="M575.526,90.444c2.693-13.468,3.327-26.461,3.327-39.137,0-11.091-1.268-21.231-3.327-32.165-24.084-3.328-52.922-4.437-76.53-4.437-25.668,0-51.337.634-76.847,1.743v113.924h26.619l.158-96.653c16.637-.634,32.323-.792,49.911-.792,18.221,0,34.225.317,51.178,1.268.792,6.813,1.268,12.359,1.268,19.172,0,7.13-.475,13.943-1.426,20.915-12.992.792-26.302.951-40.404.951-10.458,0-21.39-.158-33.116-.158v3.485l69.242,51.812h34.542l-50.228-37.869c15.369,0,31.531-1.268,45.633-2.06Z" style="fill:#fff; stroke-width:0px;"/><path d="M691.973,14.548c-27.253,0-54.506,1.426-81.917,4.278-1.426,18.538-2.219,35.968-2.219,54.506s.793,35.968,2.219,54.506c27.411,2.852,54.664,4.278,81.917,4.278,27.095,0,54.348-1.426,81.759-4.278,1.426-18.538,2.219-35.968,2.219-54.506s-.793-35.968-2.219-54.506c-27.411-2.852-54.664-4.278-81.759-4.278ZM745.845,110.409c-17.746,1.584-36.126,2.218-53.872,2.218-17.904,0-36.284-.634-54.03-2.218-1.109-12.676-1.743-24.243-1.743-37.077s.634-24.401,1.743-37.077c17.746-1.584,36.126-2.218,54.03-2.218,17.746,0,36.126.634,53.872,2.218,1.109,12.676,1.901,24.243,1.901,37.077s-.792,24.401-1.901,37.077Z" style="fill:#fff; stroke-width:0px;"/><path d="M941.676,96.624l-71.618-78.749c-22.024-1.109-40.879-1.584-59.893-1.584h-4.12v114.082h26.937V36.097c7.446,0,13.31.159,20.915.476l87.779,93.643v.158h26.937V16.291h-26.937v80.333Z" style="fill:#fff; stroke-width:0px;"/><path d="M1164.599,18.826c-27.411-2.852-54.664-4.278-81.759-4.278-27.253,0-54.506,1.426-81.917,4.278-1.426,18.538-2.219,35.968-2.219,54.506s.793,35.968,2.219,54.506c27.411,2.852,54.664,4.278,81.917,4.278,27.095,0,54.348-1.426,81.759-4.278,1.426-18.538,2.219-35.968,2.219-54.506s-.793-35.968-2.219-54.506ZM1136.713,110.409c-17.746,1.584-36.126,2.218-53.872,2.218-17.904,0-36.284-.634-54.03-2.218-1.109-12.676-1.743-24.243-1.743-37.077s.634-24.401,1.743-37.077c17.746-1.584,36.126-2.218,54.03-2.218,17.746,0,36.126.634,53.872,2.218,1.109,12.676,1.901,24.243,1.901,37.077s-.792,24.401-1.901,37.077Z" style="fill:#fff; stroke-width:0px;"/></svg>