<?xml version="1.0" encoding="UTF-8"?>
<svg id="Layer_1" data-name="Layer 1" xmlns="http://www.w3.org/2000/svg" viewBox="0 0 160 160">
  <path d="M111.316,117.595c-.531.442-1.063.885-1.613,1.305.555-.415,1.089-.854,1.613-1.305h0Z" fill="#1d1d1f" stroke-width="0"/>
  <path d="M112.492,116.53c-.36.34-.73.68-1.11,1.01.11-.09.22-.18.32-.28.27-.24.53-.48.79-.73h0Z" fill="#1d1d1f" stroke-width="0"/>
  <path d="M79.954,33.042c16.745,0,32.343,8.998,40.706,23.483,6.27,10.861,7.936,23.513,4.69,35.627-3.246,12.113-11.015,22.238-21.875,28.508-7.137,4.12-15.238,6.298-23.429,6.298-16.745,0-32.343-8.998-40.706-23.483-6.27-10.861-7.936-23.513-4.69-35.627,3.246-12.113,11.015-22.238,21.875-28.508,7.137-4.12,15.238-6.298,23.429-6.298M79.954,31.042c-8.305,0-16.72,2.115-24.429,6.566-23.412,13.517-31.434,43.455-17.917,66.867,9.066,15.703,25.521,24.483,42.438,24.483,8.305,0,16.72-2.115,24.429-6.566,23.412-13.517,31.434-43.455,17.917-66.867-9.066-15.703-25.521-24.483-42.438-24.483h0Z" fill="#f5f4f7" stroke-width="0"/>
  <path d="M119.725,83.51c-4.4,11.25-15.36,19.21-28.17,19.21-11.08,0-20.77-5.95-26.03-14.84,4.3,2.35,9.23,3.68,14.47,3.68,13.71,0,25.3-9.13,29.01-21.64.81-2.73,1.25-5.62,1.25-8.62,0-5.63-1.54-10.89-4.21-15.4-.48-.81-.99-1.59-1.55-2.34-.18-.26-.37-.51-.56-.75-.15-.2-.31-.4-.48-.6-.42-.53-.87-1.04-1.33-1.53-.19-.2-.38-.4-.57-.6-.68-.69-1.39-1.35-2.14-1.97-.23-.2-.48-.4-.72-.59-.49-.39-.99-.76-1.51-1.11-.25-.18-.51-.35-.77-.52-.27-.17-.53-.34-.8-.5-.27-.16-.54-.32-.81-.47-.47-.26-.94-.52-1.43-.76-.22-.11-.45-.22-.68-.32-.16-.08-.32-.15-.48-.22-.27-.12-.54-.23-.8-.34-.33-.13-.66-.26-1-.39-.26-.09-.52-.19-.79-.27-.3-.1-.6-.2-.91-.29-.3-.1-.61-.18-.92-.26-.3-.08-.6-.16-.9-.23-.34-.08-.69-.15-1.03-.22-.59-.12-1.18-.21-1.78-.3-.03,0-.06,0-.09-.01-.33-.04-.65-.08-.98-.11-.65-.06-1.31-.11-1.98-.13-.35-.01-.69-.02-1.04-.02-27.03,0-48.95,21.91-48.95,48.95s21.92,48.95,48.95,48.95c11.17,0,21.47-3.74,29.71-10.05.23-.17.46-.35.68-.53.05-.03.09-.07.13-.11h.01c.04-.03.07-.05.1-.08.23-.19.46-.38.69-.58.03-.02.05-.04.07-.06.11-.09.22-.18.32-.28.27-.24.53-.48.79-.73.37-.35.72-.71,1.07-1.07.02-.02.04-.04.06-.07.31-.33.62-.67.92-1.02.11-.12.22-.25.32-.38.26-.32.52-.64.77-.97.06-.06.11-.12.15-.19.25-.33.49-.67.73-1.01.01-.02.02-.05.04-.07.04-.04.07-.09.1-.14.26-.38.51-.76.74-1.15.06-.1.12-.2.18-.3.23-.36.44-.74.64-1.11.06-.1.12-.21.17-.31.21-.41.42-.83.62-1.25.11-.24.23-.49.33-.74.15-.33.29-.66.41-.99.18-.42.33-.85.48-1.28.09-.25.17-.51.25-.77.08-.26.16-.52.24-.79.07-.26.14-.52.21-.79s.13-.53.19-.8.12-.54.17-.81c.06-.31.12-.61.17-.92.03-.17.05-.34.08-.52.05-.34.09-.68.13-1.03.03-.28.06-.56.08-.84.04-.42.06-.84.08-1.27.02-.42.03-.85.03-1.28,0-3.94-.75-7.7-2.13-11.15ZM61.515,75.22c-.04-.17-.08-.35-.12-.52-.14-.72-.21-1.47-.21-2.23s.07-1.51.21-2.23c.04-.17.08-.35.12-.52,1.23-5.05,5.79-8.81,11.23-8.81,3.93,0,7.4,1.97,9.49,4.97,1.3,1.87,2.06,4.14,2.06,6.59,0,6.38-5.17,11.56-11.55,11.56-3.12,0-5.94-1.23-8.03-3.25-1.54-1.48-2.68-3.4-3.2-5.56Z" fill="#f5f4f7" stroke-width="0"/>
</svg>